# This file is brought to you by Roblox Corporation
# Generated by Roblox Studio

mtllib remake.mtl

g Switchon1

v -5 1.82316 -95.2058 
v -5 -0.885071 -95.6833 
v -3.875 1.82316 -95.2058 
v -3.875 -0.885071 -95.6833 
v -5 -0.861544 -95.8167 
v -5 1.93087 -95.8167 
v -3.875 -0.861544 -95.8167 
v -3.875 1.93087 -95.8167 
v -3.875 -0.885071 -95.6833 
v -3.875 -0.861544 -95.8167 
v -3.875 1.82316 -95.2058 
v -3.875 1.93087 -95.8167 
v -3.875 -0.861544 -95.8167 
v -3.875 -0.885071 -95.6833 
v -5 -0.861544 -95.8167 
v -5 -0.885071 -95.6833 
v -5 -0.861544 -95.8167 
v -5 -0.885071 -95.6833 
v -5 1.93087 -95.8167 
v -5 1.82316 -95.2058 
v -5 1.93087 -95.8167 
v -5 1.82316 -95.2058 
v -3.875 1.93087 -95.8167 
v -3.875 1.82316 -95.2058 

vn 0 -0.173228 0.984252 
vn 0 -0.173228 0.984252 
vn 0 -0.173228 0.984252 
vn 0 -0.173228 0.984252 
vn 0 0 -1 
vn 0 0 -1 
vn 0 0 -1 
vn 0 0 -1 
vn 1 0 0 
vn 1 0 0 
vn 1 0 0 
vn 1 0 0 
vn 0 -0.984252 -0.173228 
vn 0 -0.984252 -0.173228 
vn 0 -0.984252 -0.173228 
vn 0 -0.984252 -0.173228 
vn -1 0 0 
vn -1 0 0 
vn -1 0 0 
vn -1 0 0 
vn 0 0.984252 0.173228 
vn 0 0.984252 0.173228 
vn 0 0.984252 0.173228 
vn 0 0.984252 0.173228 

vt 30.0703 -51.1719 
vt 30.0703 -50.8281 
vt 29.9297 -51.1719 
vt 29.9297 -50.8281 
vt 29.9297 -50.8281 
vt 29.9297 -51.1719 
vt 30.0703 -50.8281 
vt 30.0703 -51.1719 
vt 29.8281 -50.9612 
vt 29.8281 -50.9782 
vt 30.1719 -50.9612 
vt 30.1719 -51.0388 
vt 30.0703 -50.9782 
vt 30.0703 -50.9612 
vt 29.9297 -50.9782 
vt 29.9297 -50.9612 
vt 30.1719 -50.9782 
vt 30.1719 -50.9612 
vt 29.8281 -51.0388 
vt 29.8281 -50.9612 
vt 30.0703 -51.0388 
vt 30.0703 -50.9612 
vt 29.9297 -51.0388 
vt 29.9297 -50.9612 

usemtl Switchon1Mtl

f 1/1/1 2/2/2 3/3/3 
f 2/2/2 4/4/4 3/3/3 
f 5/5/5 6/6/6 7/7/7 
f 6/6/6 8/8/8 7/7/7 
f 9/9/9 10/10/10 11/11/11 
f 10/10/10 12/12/12 11/11/11 
f 13/13/13 14/14/14 15/15/15 
f 14/14/14 16/16/16 15/15/15 
f 17/17/17 18/18/18 19/19/19 
f 18/18/18 20/20/20 19/19/19 
f 21/21/21 22/22/22 23/23/23 
f 22/22/22 24/24/24 23/23/23 

g T1

v -2.375 0.669228 -95.8167 
v -2.375 1.79423 -95.8167 
v -2.375 0.669228 -95.6917 
v -2.375 1.79423 -95.6917 
v -3.5 1.79423 -95.8167 
v -2.375 1.79423 -95.8167 
v -3.5 0.669228 -95.8167 
v -2.375 0.669228 -95.8167 
v -2.375 1.79423 -95.8167 
v -3.5 1.79423 -95.8167 
v -2.375 1.79423 -95.6917 
v -3.5 1.79423 -95.6917 
v -3.5 1.79423 -95.8167 
v -3.5 0.669228 -95.8167 
v -3.5 1.79423 -95.6917 
v -3.5 0.669228 -95.6917 
v -3.5 0.669228 -95.6917 
v -2.375 0.669228 -95.6917 
v -3.5 1.79423 -95.6917 
v -2.375 1.79423 -95.6917 
v -3.5 0.669228 -95.8167 
v -2.375 0.669228 -95.8167 
v -3.5 0.669228 -95.6917 
v -2.375 0.669228 -95.6917 

vn 1 0 0 
vn 1 0 0 
vn 1 0 0 
vn 1 0 0 
vn 0 0 -1 
vn 0 0 -1 
vn 0 0 -1 
vn 0 0 -1 
vn 0 1 0 
vn 0 1 0 
vn 0 1 0 
vn 0 1 0 
vn -1 0 0 
vn -1 0 0 
vn -1 0 0 
vn -1 0 0 
vn 0 0 1 
vn 0 0 1 
vn 0 0 1 
vn 0 0 1 
vn 0 -1 0 
vn 0 -1 0 
vn 0 -1 0 
vn 0 -1 0 

vt 1.14062 -1.5 
vt 1 -1.5 
vt 1.14062 -1.51562 
vt 1 -1.51562 
vt 1.14062 -1.5 
vt 1 -1.5 
vt 1.14062 -1.64062 
vt 1 -1.64062 
vt 1.14062 -1.5 
vt 1 -1.5 
vt 1.14062 -1.51562 
vt 1 -1.51562 
vt 1.14062 -1.5 
vt 1 -1.5 
vt 1.14062 -1.51562 
vt 1 -1.51562 
vt 1.14062 -1.5 
vt 1 -1.5 
vt 1.14062 -1.64062 
vt 1 -1.64062 
vt 1.14062 -1.5 
vt 1 -1.5 
vt 1.14062 -1.51562 
vt 1 -1.51562 

usemtl T1Mtl

f 25/25/25 26/26/26 27/27/27 
f 27/27/27 26/26/26 28/28/28 
f 29/29/29 30/30/30 31/31/31 
f 31/31/31 30/30/30 32/32/32 
f 33/33/33 34/34/34 35/35/35 
f 35/35/35 34/34/34 36/36/36 
f 37/37/37 38/38/38 39/39/39 
f 39/39/39 38/38/38 40/40/40 
f 41/41/41 42/42/42 43/43/43 
f 43/43/43 42/42/42 44/44/44 
f 45/45/45 46/46/46 47/47/47 
f 47/47/47 46/46/46 48/48/48 

g L1

v -3.5 2.04423 -95.6917 
v -3.5 3.16923 -95.6917 
v -3.5 2.04423 -95.8167 
v -3.5 3.16923 -95.8167 
v -2.375 3.16923 -95.6917 
v -3.5 3.16923 -95.6917 
v -2.375 2.04423 -95.6917 
v -3.5 2.04423 -95.6917 
v -3.5 3.16923 -95.6917 
v -2.375 3.16923 -95.6917 
v -3.5 3.16923 -95.8167 
v -2.375 3.16923 -95.8167 
v -2.375 3.16923 -95.6917 
v -2.375 2.04423 -95.6917 
v -2.375 3.16923 -95.8167 
v -2.375 2.04423 -95.8167 
v -2.375 2.04423 -95.8167 
v -3.5 2.04423 -95.8167 
v -2.375 3.16923 -95.8167 
v -3.5 3.16923 -95.8167 
v -2.375 2.04423 -95.6917 
v -3.5 2.04423 -95.6917 
v -2.375 2.04423 -95.8167 
v -3.5 2.04423 -95.8167 

vn -1 0 0 
vn -1 0 0 
vn -1 0 0 
vn -1 0 0 
vn 0 0 1 
vn 0 0 1 
vn 0 0 1 
vn 0 0 1 
vn 0 1 0 
vn 0 1 0 
vn 0 1 0 
vn 0 1 0 
vn 1 0 0 
vn 1 0 0 
vn 1 0 0 
vn 1 0 0 
vn 0 0 -1 
vn 0 0 -1 
vn 0 0 -1 
vn 0 0 -1 
vn 0 -1 0 
vn 0 -1 0 
vn 0 -1 0 
vn 0 -1 0 

vt 5.89062 -0.25 
vt 5.75 -0.25 
vt 5.89062 -0.265625 
vt 5.75 -0.265625 
vt 5.89062 -0.25 
vt 5.75 -0.25 
vt 5.89062 -0.390625 
vt 5.75 -0.390625 
vt 5.89062 -0.25 
vt 5.75 -0.25 
vt 5.89062 -0.265625 
vt 5.75 -0.265625 
vt 5.89062 -0.25 
vt 5.75 -0.25 
vt 5.89062 -0.265625 
vt 5.75 -0.265625 
vt 5.89062 -0.25 
vt 5.75 -0.25 
vt 5.89062 -0.390625 
vt 5.75 -0.390625 
vt 5.89062 -0.25 
vt 5.75 -0.25 
vt 5.89062 -0.265625 
vt 5.75 -0.265625 

usemtl T1Mtl

f 49/49/49 50/50/50 51/51/51 
f 51/51/51 50/50/50 52/52/52 
f 53/53/53 54/54/54 55/55/55 
f 55/55/55 54/54/54 56/56/56 
f 57/57/57 58/58/58 59/59/59 
f 59/59/59 58/58/58 60/60/60 
f 61/61/61 62/62/62 63/63/63 
f 63/63/63 62/62/62 64/64/64 
f 65/65/65 66/66/66 67/67/67 
f 67/67/67 66/66/66 68/68/68 
f 69/69/69 70/70/70 71/71/71 
f 71/71/71 70/70/70 72/72/72 

g S1

v -3.5 -0.705772 -95.6917 
v -3.5 0.419228 -95.6917 
v -3.5 -0.705772 -95.8167 
v -3.5 0.419228 -95.8167 
v -2.375 0.419228 -95.6917 
v -3.5 0.419228 -95.6917 
v -2.375 -0.705772 -95.6917 
v -3.5 -0.705772 -95.6917 
v -3.5 0.419228 -95.6917 
v -2.375 0.419228 -95.6917 
v -3.5 0.419228 -95.8167 
v -2.375 0.419228 -95.8167 
v -2.375 0.419228 -95.6917 
v -2.375 -0.705772 -95.6917 
v -2.375 0.419228 -95.8167 
v -2.375 -0.705772 -95.8167 
v -2.375 -0.705772 -95.8167 
v -3.5 -0.705772 -95.8167 
v -2.375 0.419228 -95.8167 
v -3.5 0.419228 -95.8167 
v -2.375 -0.705772 -95.6917 
v -3.5 -0.705772 -95.6917 
v -2.375 -0.705772 -95.8167 
v -3.5 -0.705772 -95.8167 

vn -1 0 0 
vn -1 0 0 
vn -1 0 0 
vn -1 0 0 
vn 0 0 1 
vn 0 0 1 
vn 0 0 1 
vn 0 0 1 
vn 0 1 0 
vn 0 1 0 
vn 0 1 0 
vn 0 1 0 
vn 1 0 0 
vn 1 0 0 
vn 1 0 0 
vn 1 0 0 
vn 0 0 -1 
vn 0 0 -1 
vn 0 0 -1 
vn 0 0 -1 
vn 0 -1 0 
vn 0 -1 0 
vn 0 -1 0 
vn 0 -1 0 

vt 5.64062 0.25 
vt 5.5 0.25 
vt 5.64062 0.234375 
vt 5.5 0.234375 
vt 5.64062 0.25 
vt 5.5 0.25 
vt 5.64062 0.109375 
vt 5.5 0.109375 
vt 5.64062 0.25 
vt 5.5 0.25 
vt 5.64062 0.234375 
vt 5.5 0.234375 
vt 5.64062 0.25 
vt 5.5 0.25 
vt 5.64062 0.234375 
vt 5.5 0.234375 
vt 5.64062 0.25 
vt 5.5 0.25 
vt 5.64062 0.109375 
vt 5.5 0.109375 
vt 5.64062 0.25 
vt 5.5 0.25 
vt 5.64062 0.234375 
vt 5.5 0.234375 

usemtl T1Mtl

f 73/73/73 74/74/74 75/75/75 
f 75/75/75 74/74/74 76/76/76 
f 77/77/77 78/78/78 79/79/79 
f 79/79/79 78/78/78 80/80/80 
f 81/81/81 82/82/82 83/83/83 
f 83/83/83 82/82/82 84/84/84 
f 85/85/85 86/86/86 87/87/87 
f 87/87/87 86/86/86 88/88/88 
f 89/89/89 90/90/90 91/91/91 
f 91/91/91 90/90/90 92/92/92 
f 93/93/93 94/94/94 95/95/95 
f 95/95/95 94/94/94 96/96/96 

g C1

v -3.5 -2.08077 -95.6917 
v -3.5 -0.955772 -95.6917 
v -3.5 -2.08077 -95.8167 
v -3.5 -0.955772 -95.8167 
v -2.375 -0.955772 -95.6917 
v -3.5 -0.955772 -95.6917 
v -2.375 -2.08077 -95.6917 
v -3.5 -2.08077 -95.6917 
v -3.5 -0.955772 -95.6917 
v -2.375 -0.955772 -95.6917 
v -3.5 -0.955772 -95.8167 
v -2.375 -0.955772 -95.8167 
v -2.375 -0.955772 -95.6917 
v -2.375 -2.08077 -95.6917 
v -2.375 -0.955772 -95.8167 
v -2.375 -2.08077 -95.8167 
v -2.375 -2.08077 -95.8167 
v -3.5 -2.08077 -95.8167 
v -2.375 -0.955772 -95.8167 
v -3.5 -0.955772 -95.8167 
v -2.375 -2.08077 -95.6917 
v -3.5 -2.08077 -95.6917 
v -2.375 -2.08077 -95.8167 
v -3.5 -2.08077 -95.8167 

vn -1 0 0 
vn -1 0 0 
vn -1 0 0 
vn -1 0 0 
vn 0 0 1 
vn 0 0 1 
vn 0 0 1 
vn 0 0 1 
vn 0 1 0 
vn 0 1 0 
vn 0 1 0 
vn 0 1 0 
vn 1 0 0 
vn 1 0 0 
vn 1 0 0 
vn 1 0 0 
vn 0 0 -1 
vn 0 0 -1 
vn 0 0 -1 
vn 0 0 -1 
vn 0 -1 0 
vn 0 -1 0 
vn 0 -1 0 
vn 0 -1 0 

vt 0.890625 -1 
vt 0.75 -1 
vt 0.890625 -1.01562 
vt 0.75 -1.01562 
vt 0.890625 -1 
vt 0.75 -1 
vt 0.890625 -1.14062 
vt 0.75 -1.14062 
vt 0.890625 -1 
vt 0.75 -1 
vt 0.890625 -1.01562 
vt 0.75 -1.01562 
vt 0.890625 -1 
vt 0.75 -1 
vt 0.890625 -1.01562 
vt 0.75 -1.01562 
vt 0.890625 -1 
vt 0.75 -1 
vt 0.890625 -1.14062 
vt 0.75 -1.14062 
vt 0.890625 -1 
vt 0.75 -1 
vt 0.890625 -1.01562 
vt 0.75 -1.01562 

usemtl T1Mtl

f 97/97/97 98/98/98 99/99/99 
f 99/99/99 98/98/98 100/100/100 
f 101/101/101 102/102/102 103/103/103 
f 103/103/103 102/102/102 104/104/104 
f 105/105/105 106/106/106 107/107/107 
f 107/107/107 106/106/106 108/108/108 
f 109/109/109 110/110/110 111/111/111 
f 111/111/111 110/110/110 112/112/112 
f 113/113/113 114/114/114 115/115/115 
f 115/115/115 114/114/114 116/116/116 
f 117/117/117 118/118/118 119/119/119 
f 119/119/119 118/118/118 120/120/120 

g NmHold1

v -3.75 -2.20577 -95.6917 
v -5.125 -2.20577 -95.6917 
v -3.75 -2.20577 -95.8167 
v -5.125 -2.20577 -95.8167 
v -5.125 -1.33077 -95.6917 
v -5.125 -2.20577 -95.6917 
v -3.75 -1.33077 -95.6917 
v -3.75 -2.20577 -95.6917 
v -5.125 -2.20577 -95.6917 
v -5.125 -1.33077 -95.6917 
v -5.125 -2.20577 -95.8167 
v -5.125 -1.33077 -95.8167 
v -5.125 -1.33077 -95.6917 
v -3.75 -1.33077 -95.6917 
v -5.125 -1.33077 -95.8167 
v -3.75 -1.33077 -95.8167 
v -3.75 -1.33077 -95.8167 
v -3.75 -2.20577 -95.8167 
v -5.125 -1.33077 -95.8167 
v -5.125 -2.20577 -95.8167 
v -3.75 -1.33077 -95.6917 
v -3.75 -2.20577 -95.6917 
v -3.75 -1.33077 -95.8167 
v -3.75 -2.20577 -95.8167 

vn 0 -1 0 
vn 0 -1 0 
vn 0 -1 0 
vn 0 -1 0 
vn 0 0 1 
vn 0 0 1 
vn 0 0 1 
vn 0 0 1 
vn -1 0 0 
vn -1 0 0 
vn -1 0 0 
vn -1 0 0 
vn 0 1 0 
vn 0 1 0 
vn 0 1 0 
vn 0 1 0 
vn 0 0 -1 
vn 0 0 -1 
vn 0 0 -1 
vn 0 0 -1 
vn 1 0 0 
vn 1 0 0 
vn 1 0 0 
vn 1 0 0 

vt 7.17188 -1 
vt 7 -1 
vt 7.17188 -1.01562 
vt 7 -1.01562 
vt 7.10938 -1 
vt 7 -1 
vt 7.10938 -1.17188 
vt 7 -1.17188 
vt 7.10938 -1 
vt 7 -1 
vt 7.10938 -1.01562 
vt 7 -1.01562 
vt 7.17188 -1 
vt 7 -1 
vt 7.17188 -1.01562 
vt 7 -1.01562 
vt 7.10938 -1 
vt 7 -1 
vt 7.10938 -1.17188 
vt 7 -1.17188 
vt 7.10938 -1 
vt 7 -1 
vt 7.10938 -1.01562 
vt 7 -1.01562 

usemtl NmHold1Mtl

f 121/121/121 122/122/122 123/123/123 
f 123/123/123 122/122/122 124/124/124 
f 125/125/125 126/126/126 127/127/127 
f 127/127/127 126/126/126 128/128/128 
f 129/129/129 130/130/130 131/131/131 
f 131/131/131 130/130/130 132/132/132 
f 133/133/133 134/134/134 135/135/135 
f 135/135/135 134/134/134 136/136/136 
f 137/137/137 138/138/138 139/139/139 
f 139/139/139 138/138/138 140/140/140 
f 141/141/141 142/142/142 143/143/143 
f 143/143/143 142/142/142 144/144/144 

g ScHold1

v -2.375 -2.08077 -95.8167 
v -2.375 -2.08077 -95.6917 
v -2.375 -0.955761 -95.8167 
v -2.375 -0.955761 -95.6917 
v -2.375 -0.955761 -95.8167 
v -2.375 -0.955761 -95.6917 
v -3.5 -0.955761 -95.8167 
v -3.5 -0.955761 -95.6917 
v -3.5 -2.08077 -95.8167 
v -3.5 -2.08077 -95.6917 
v -2.375 -2.08077 -95.8167 
v -2.375 -2.08077 -95.6917 
v -3.5 -2.08077 -95.6917 
v -3.5 -2.08077 -95.8167 
v -3.5 -0.955761 -95.6917 
v -3.5 -0.955761 -95.8167 
v -2.375 2.04424 -95.8167 
v -2.375 2.04424 -95.6917 
v -2.375 3.16923 -95.8167 
v -2.375 3.16923 -95.6917 
v -2.375 3.16923 -95.8167 
v -2.375 3.16923 -95.6917 
v -3.5 3.16923 -95.8167 
v -3.5 3.16923 -95.6917 
v -3.5 2.04424 -95.8167 
v -3.5 2.04424 -95.6917 
v -2.375 2.04424 -95.8167 
v -2.375 2.04424 -95.6917 
v -3.5 2.04424 -95.6917 
v -3.5 2.04424 -95.8167 
v -3.5 3.16923 -95.6917 
v -3.5 3.16923 -95.8167 
v -2.375 0.419231 -95.8167 
v -2.375 0.419231 -95.6917 
v -3.5 0.419231 -95.8167 
v -3.5 0.419231 -95.6917 
v -3.5 -0.705769 -95.6917 
v -3.5 -0.705769 -95.8167 
v -3.5 0.419231 -95.6917 
v -3.5 0.419231 -95.8167 
v -3.5 -0.705769 -95.8167 
v -3.50406 -0.709827 -95.8167 
v -3.5 0.419231 -95.8167 
v -3.5 0.669231 -95.8167 
v -3.5 1.79423 -95.8167 
v -3.5 3.16923 -95.8167 
v -3.625 3.29424 -95.8167 
v -3.5 2.04424 -95.8167 
v -2.375 3.16923 -95.8167 
v -2.37095 1.79828 -95.8167 
v -2.375 2.04424 -95.8167 
v -2.25 3.29424 -95.8167 
v -2.375 0.669231 -95.8167 
v -2.375 -0.705769 -95.8167 
v -2.375 0.419231 -95.8167 
v -3.5 -0.955761 -95.8167 
v -2.375 -0.955761 -95.8167 
v -2.375 -2.08077 -95.8167 
v -2.25 -2.20577 -95.8167 
v -2.25 3.29424 -95.8167 
v -2.25 -2.20577 -95.6917 
v -2.25 3.29424 -95.6917 
v -2.25 -2.20577 -95.8167 
v -3.625 -2.20577 -95.8167 
v -3.5 -2.08077 -95.8167 
v -2.25 -2.20577 -95.8167 
v -2.25 -2.20577 -95.6917 
v -3.625 -2.20577 -95.8167 
v -3.625 -2.20577 -95.6917 
v -3.625 -2.20577 -95.6917 
v -3.625 3.29424 -95.6917 
v -3.625 -2.20577 -95.8167 
v -3.625 3.29424 -95.8167 
v -3.625 -2.20577 -95.6917 
v -2.25 -2.20577 -95.6917 
v -3.5 -2.08077 -95.6917 
v -3.625 3.29424 -95.6917 
v -3.5 -0.955761 -95.6917 
v -3.5 -0.705769 -95.6917 
v -3.5 0.419231 -95.6917 
v -3.5 0.669231 -95.6917 
v -3.5 -0.705769 -95.8167 
v -3.5 -0.705769 -95.6917 
v -2.375 -0.705769 -95.8167 
v -2.375 -0.705769 -95.6917 
v -2.375 -0.955761 -95.6917 
v -2.375 -0.705769 -95.6917 
v -2.375 -0.705769 -95.8167 
v -2.375 -0.705769 -95.6917 
v -2.375 0.419231 -95.8167 
v -2.375 0.419231 -95.6917 
v -2.375 2.04424 -95.6917 
v -2.375 1.79423 -95.6917 
v -2.375 3.16923 -95.6917 
v -2.25 3.29424 -95.6917 
v -3.5 3.16923 -95.6917 
v -3.625 3.29424 -95.8167 
v -3.625 3.29424 -95.6917 
v -2.25 3.29424 -95.8167 
v -2.25 3.29424 -95.6917 
v -2.375 -2.08077 -95.6917 
v -2.375 0.669231 -95.6917 
v -3.5 2.04424 -95.6917 
v -3.5 0.669231 -95.6917 
v -3.5 0.669231 -95.8167 
v -3.5 1.79423 -95.6917 
v -3.5 1.79423 -95.8167 
v -2.375 1.79423 -95.8167 
v -2.375 1.79423 -95.6917 
v -3.5 1.79423 -95.8167 
v -3.5 1.79423 -95.6917 
v -2.375 0.669231 -95.8167 
v -2.375 0.669231 -95.6917 
v -2.375 1.79423 -95.8167 
v -2.375 1.79423 -95.6917 
v -3.5 0.669231 -95.8167 
v -3.5 0.669231 -95.6917 
v -2.375 0.669231 -95.8167 
v -2.375 0.669231 -95.6917 
v -3.5 1.79423 -95.6917 
v -2.375 1.79423 -95.8167 
v -2.375 0.419231 -95.6917 

vn -1 0 0 
vn -1 0 0 
vn -1 0 0 
vn -1 0 0 
vn 0 -1 0 
vn 0 -1 0 
vn 0 -1 0 
vn 0 -1 0 
vn 0 1 0 
vn 0 1 0 
vn 0 1 0 
vn 0 1 0 
vn 1 0 0 
vn 1 0 0 
vn 1 0 0 
vn 1 0 0 
vn -1 0 0 
vn -1 0 0 
vn -1 0 0 
vn -1 0 0 
vn 0 -1 0 
vn 0 -1 0 
vn 0 -1 0 
vn 0 -1 0 
vn 0 1 0 
vn 0 1 0 
vn 0 1 0 
vn 0 1 0 
vn 1 0 0 
vn 1 0 0 
vn 1 0 0 
vn 1 0 0 
vn 0 -1 0 
vn 0 -1 0 
vn 0 -1 0 
vn 0 -1 0 
vn 1 0 0 
vn 1 0 0 
vn 1 0 0 
vn 1 0 0 
vn 0 0 -1 
vn 0 0 -1 
vn 0 0 -1 
vn 0 0 -1 
vn 0 0 -1 
vn 0 0 -1 
vn 0 0 -1 
vn 0 0 -1 
vn 0 0 -1 
vn 0 0 -1 
vn 0 0 -1 
vn 0 0 -1 
vn 0 0 -1 
vn 0 0 -1 
vn 0 0 -1 
vn 0 0 -1 
vn 0 0 -1 
vn 0 0 -1 
vn 1 0 0 
vn 1 0 0 
vn 1 0 0 
vn 1 0 0 
vn 0 0 -1 
vn 0 0 -1 
vn 0 0 -1 
vn 0 -1 0 
vn 0 -1 0 
vn 0 -1 0 
vn 0 -1 0 
vn -1 0 0 
vn -1 0 0 
vn -1 0 0 
vn -1 0 0 
vn 0 0 1 
vn 0 0 1 
vn 0 0 1 
vn 0 0 1 
vn 0 0 1 
vn 0 0 1 
vn 0 0 1 
vn 0 0 1 
vn 0 1 0 
vn 0 1 0 
vn 0 1 0 
vn 0 1 0 
vn 0 0 1 
vn 0 0 1 
vn -1 0 0 
vn -1 0 0 
vn -1 0 0 
vn -1 0 0 
vn 0 0 1 
vn 0 0 1 
vn 0 0 1 
vn 0 0 1 
vn 0 0 1 
vn 0 1 0 
vn 0 1 0 
vn 0 1 0 
vn 0 1 0 
vn 0 0 1 
vn 0 0 1 
vn 0 0 1 
vn 1 0 0 
vn 1 0 0 
vn 1 0 0 
vn 1 0 0 
vn 0 -1 0 
vn 0 -1 0 
vn 0 -1 0 
vn 0 -1 0 
vn -1 0 0 
vn -1 0 0 
vn -1 0 0 
vn -1 0 0 
vn 0 1 0 
vn 0 1 0 
vn 0 1 0 
vn 0 1 0 
vn 0 0 1 
vn 0 0 -1 
vn 0 0 1 

vt 52.3281 -15.0078 
vt 52.3281 -14.9922 
vt 52.1875 -15.0078 
vt 52.1875 -14.9922 
vt 52.0703 -15.0078 
vt 52.0703 -14.9922 
vt 51.9297 -15.0078 
vt 51.9297 -14.9922 
vt 52.0703 -15.0078 
vt 52.0703 -14.9922 
vt 51.9297 -15.0078 
vt 51.9297 -14.9922 
vt 51.6719 -14.9922 
vt 51.6719 -15.0078 
vt 51.8125 -14.9922 
vt 51.8125 -15.0078 
vt 51.8125 -15.0078 
vt 51.8125 -14.9922 
vt 51.6719 -15.0078 
vt 51.6719 -14.9922 
vt 52.0703 -15.0078 
vt 52.0703 -14.9922 
vt 51.9297 -15.0078 
vt 51.9297 -14.9922 
vt 52.0703 -15.0078 
vt 52.0703 -14.9922 
vt 51.9297 -15.0078 
vt 51.9297 -14.9922 
vt 52.1875 -14.9922 
vt 52.1875 -15.0078 
vt 52.3281 -14.9922 
vt 52.3281 -15.0078 
vt 52.0703 -15.0078 
vt 52.0703 -14.9922 
vt 51.9297 -15.0078 
vt 51.9297 -14.9922 
vt 51.8438 -14.9922 
vt 51.8438 -15.0078 
vt 51.9844 -14.9922 
vt 51.9844 -15.0078 
vt 52.0703 -15.1562 
vt 52.0708 -15.1568 
vt 52.0703 -15.0156 
vt 52.0703 -14.9844 
vt 52.0703 -14.8438 
vt 52.0703 -14.6719 
vt 52.0859 -14.6562 
vt 52.0703 -14.8125 
vt 51.9297 -14.6719 
vt 51.9292 -14.8432 
vt 51.9297 -14.8125 
vt 51.9141 -14.6562 
vt 51.9297 -14.9844 
vt 51.9297 -15.1562 
vt 51.9297 -15.0156 
vt 52.0703 -15.1875 
vt 51.9297 -15.1875 
vt 51.9297 -15.3281 
vt 51.6562 -15.0078 
vt 52.3438 -15.0078 
vt 51.6562 -14.9922 
vt 52.3438 -14.9922 
vt 51.9141 -15.3438 
vt 52.0859 -15.3438 
vt 52.0703 -15.3281 
vt 52.0859 -15.0078 
vt 52.0859 -14.9922 
vt 51.9141 -15.0078 
vt 51.9141 -14.9922 
vt 52.3438 -14.9922 
vt 51.6562 -14.9922 
vt 52.3438 -15.0078 
vt 51.6562 -15.0078 
vt 51.9141 -15.3438 
vt 52.0859 -15.3438 
vt 51.9297 -15.3281 
vt 51.9141 -14.6562 
vt 51.9297 -15.1875 
vt 51.9297 -15.1562 
vt 51.9297 -15.0156 
vt 51.9297 -14.9844 
vt 52.0703 -15.0078 
vt 52.0703 -14.9922 
vt 51.9297 -15.0078 
vt 51.9297 -14.9922 
vt 52.0703 -15.1875 
vt 52.0703 -15.1562 
vt 52.1562 -15.0078 
vt 52.1562 -14.9922 
vt 52.0156 -15.0078 
vt 52.0156 -14.9922 
vt 52.0703 -14.8125 
vt 52.0703 -14.8438 
vt 52.0703 -14.6719 
vt 52.0859 -14.6562 
vt 51.9297 -14.6719 
vt 52.0859 -15.0078 
vt 52.0859 -14.9922 
vt 51.9141 -15.0078 
vt 51.9141 -14.9922 
vt 52.0703 -15.3281 
vt 52.0703 -14.9844 
vt 51.9297 -14.8125 
vt 52.0156 -14.9922 
vt 52.0156 -15.0078 
vt 52.1562 -14.9922 
vt 52.1562 -15.0078 
vt 52.0703 -15.0078 
vt 52.0703 -14.9922 
vt 51.9297 -15.0078 
vt 51.9297 -14.9922 
vt 51.9844 -15.0078 
vt 51.9844 -14.9922 
vt 51.8438 -15.0078 
vt 51.8438 -14.9922 
vt 52.0703 -15.0078 
vt 52.0703 -14.9922 
vt 51.9297 -15.0078 
vt 51.9297 -14.9922 
vt 51.9297 -14.8438 
vt 51.9297 -14.8438 
vt 52.0703 -15.0156 

usemtl T1Mtl

f 145/145/145 146/146/146 147/147/147 
f 146/146/146 148/148/148 147/147/147 
f 149/149/149 150/150/150 151/151/151 
f 150/150/150 152/152/152 151/151/151 
f 153/153/153 154/154/154 155/155/155 
f 154/154/154 156/156/156 155/155/155 
f 157/157/157 158/158/158 159/159/159 
f 158/158/158 160/160/160 159/159/159 
f 161/161/161 162/162/162 163/163/163 
f 162/162/162 164/164/164 163/163/163 
f 165/165/165 166/166/166 167/167/167 
f 166/166/166 168/168/168 167/167/167 
f 169/169/169 170/170/170 171/171/171 
f 170/170/170 172/172/172 171/171/171 
f 173/173/173 174/174/174 175/175/175 
f 174/174/174 176/176/176 175/175/175 
f 177/177/177 178/178/178 179/179/179 
f 178/178/178 180/180/180 179/179/179 
f 181/181/181 182/182/182 183/183/183 
f 182/182/182 184/184/184 183/183/183 
f 185/185/185 186/186/186 187/187/187 
f 188/188/188 186/186/186 189/189/189 
f 190/190/190 189/189/189 191/191/191 
f 192/192/192 189/189/189 190/190/190 
f 190/190/190 191/191/191 193/193/193 
f 189/189/189 192/192/192 194/194/194 
f 192/192/192 195/195/195 194/194/194 
f 194/194/194 196/196/196 197/197/197 
f 195/195/195 196/196/196 194/194/194 
f 193/193/193 196/196/196 195/195/195 
f 191/191/191 196/196/196 193/193/193 
f 198/198/198 199/199/199 197/197/197 
f 186/186/186 185/185/185 198/198/198 
f 198/198/198 200/200/200 186/186/186 
f 201/201/201 198/198/198 202/202/202 
f 200/200/200 198/198/198 201/201/201 
f 203/203/203 204/204/204 205/205/205 
f 204/204/204 206/206/206 205/205/205 
f 202/202/202 196/196/196 207/207/207 
f 198/198/198 196/196/196 202/202/202 
f 197/197/197 196/196/196 198/198/198 
f 191/191/191 189/189/189 208/208/208 
f 189/189/189 186/186/186 208/208/208 
f 186/186/186 200/200/200 208/208/208 
f 200/200/200 209/209/209 208/208/208 
f 209/209/209 202/202/202 208/208/208 
f 202/202/202 207/207/207 208/208/208 
f 210/210/210 211/211/211 212/212/212 
f 211/211/211 213/213/213 212/212/212 
f 214/214/214 215/215/215 216/216/216 
f 215/215/215 217/217/217 216/216/216 
f 218/218/218 219/219/219 220/220/220 
f 220/220/220 221/221/221 218/218/218 
f 222/222/222 221/221/221 220/220/220 
f 223/223/223 224/224/224 222/222/222 
f 224/224/224 225/225/225 222/222/222 
f 225/225/225 221/221/221 222/222/222 
f 226/226/226 227/227/227 228/228/228 
f 227/227/227 229/229/229 228/228/228 
f 230/230/230 231/231/231 222/222/222 
f 231/231/231 223/223/223 222/222/222 
f 232/232/232 233/233/233 234/234/234 
f 233/233/233 235/235/235 234/234/234 
f 236/236/236 237/237/237 238/238/238 
f 238/238/238 239/239/239 240/240/240 
f 237/237/237 239/239/239 238/238/238 
f 241/241/241 242/242/242 243/243/243 
f 242/242/242 244/244/244 243/243/243 
f 239/239/239 231/231/231 219/219/219 
f 231/231/231 230/230/230 219/219/219 
f 230/230/230 245/245/245 219/219/219 
f 245/245/245 220/220/220 219/219/219 
f 237/237/237 246/246/246 239/239/239 
f 246/246/246 231/231/231 239/239/239 
f 247/247/247 221/221/221 225/225/225 
f 240/240/240 221/221/221 247/247/247 
f 239/239/239 221/221/221 240/240/240 
f 237/237/237 236/236/236 247/247/247 
f 248/248/248 249/249/249 250/250/250 
f 249/249/249 251/251/251 250/250/250 
f 252/252/252 253/253/253 254/254/254 
f 253/253/253 255/255/255 254/254/254 
f 256/256/256 257/257/257 258/258/258 
f 257/257/257 259/259/259 258/258/258 
f 260/260/260 261/261/261 262/262/262 
f 261/261/261 263/263/263 262/262/262 
f 264/264/264 247/247/247 225/225/225 
f 265/265/265 194/194/194 197/197/197 
f 194/194/194 265/265/265 189/189/189 
f 247/247/247 264/264/264 237/237/237 
f 225/225/225 224/224/224 246/246/246 
f 224/224/224 266/266/266 246/246/246 
f 266/266/266 231/231/231 246/246/246 
f 197/197/197 199/199/199 188/188/188 
f 199/199/199 187/187/187 188/188/188 
f 187/187/187 186/186/186 188/188/188 

g SwHold1

v -5.125 -1.08077 -95.6917 
v -5.125 2.16923 -95.6917 
v -5.125 -1.08077 -95.8167 
v -5.125 2.16923 -95.8167 
v -3.75 2.16923 -95.6917 
v -5.125 2.16923 -95.6917 
v -3.75 -1.08077 -95.6917 
v -5.125 -1.08077 -95.6917 
v -5.125 2.16923 -95.6917 
v -3.75 2.16923 -95.6917 
v -5.125 2.16923 -95.8167 
v -3.75 2.16923 -95.8167 
v -3.75 2.16923 -95.6917 
v -3.75 -1.08077 -95.6917 
v -3.75 2.16923 -95.8167 
v -3.75 -1.08077 -95.8167 
v -3.75 -1.08077 -95.8167 
v -5.125 -1.08077 -95.8167 
v -3.75 2.16923 -95.8167 
v -5.125 2.16923 -95.8167 
v -3.75 -1.08077 -95.6917 
v -5.125 -1.08077 -95.6917 
v -3.75 -1.08077 -95.8167 
v -5.125 -1.08077 -95.8167 

vn -1 0 0 
vn -1 0 0 
vn -1 0 0 
vn -1 0 0 
vn 0 0 1 
vn 0 0 1 
vn 0 0 1 
vn 0 0 1 
vn 0 1 0 
vn 0 1 0 
vn 0 1 0 
vn 0 1 0 
vn 1 0 0 
vn 1 0 0 
vn 1 0 0 
vn 1 0 0 
vn 0 0 -1 
vn 0 0 -1 
vn 0 0 -1 
vn 0 0 -1 
vn 0 -1 0 
vn 0 -1 0 
vn 0 -1 0 
vn 0 -1 0 

vt 7.15625 -3.75 
vt 6.75 -3.75 
vt 7.15625 -3.76562 
vt 6.75 -3.76562 
vt 6.92188 -3.75 
vt 6.75 -3.75 
vt 6.92188 -4.15625 
vt 6.75 -4.15625 
vt 6.92188 -3.75 
vt 6.75 -3.75 
vt 6.92188 -3.76562 
vt 6.75 -3.76562 
vt 7.15625 -3.75 
vt 6.75 -3.75 
vt 7.15625 -3.76562 
vt 6.75 -3.76562 
vt 6.92188 -3.75 
vt 6.75 -3.75 
vt 6.92188 -4.15625 
vt 6.75 -4.15625 
vt 6.92188 -3.75 
vt 6.75 -3.75 
vt 6.92188 -3.76562 
vt 6.75 -3.76562 

usemtl NmHold1Mtl

f 267/267/267 268/268/268 269/269/269 
f 269/269/269 268/268/268 270/270/270 
f 271/271/271 272/272/272 273/273/273 
f 273/273/273 272/272/272 274/274/274 
f 275/275/275 276/276/276 277/277/277 
f 277/277/277 276/276/276 278/278/278 
f 279/279/279 280/280/280 281/281/281 
f 281/281/281 280/280/280 282/282/282 
f 283/283/283 284/284/284 285/285/285 
f 285/285/285 284/284/284 286/286/286 
f 287/287/287 288/288/288 289/289/289 
f 289/289/289 288/288/288 290/290/290 

g Base1

v -5.375 -2.45577 -95.8167 
v -5.375 3.54423 -95.8167 
v -5.375 -2.45577 -96.0667 
v -5.375 3.54423 -96.0667 
v -2 3.54423 -95.8167 
v -5.375 3.54423 -95.8167 
v -2 -2.45577 -95.8167 
v -5.375 -2.45577 -95.8167 
v -5.375 3.54423 -95.8167 
v -2 3.54423 -95.8167 
v -5.375 3.54423 -96.0667 
v -2 3.54423 -96.0667 
v -2 3.54423 -95.8167 
v -2 -2.45577 -95.8167 
v -2 3.54423 -96.0667 
v -2 -2.45577 -96.0667 
v -2 -2.45577 -96.0667 
v -5.375 -2.45577 -96.0667 
v -2 3.54423 -96.0667 
v -5.375 3.54423 -96.0667 
v -2 -2.45577 -95.8167 
v -5.375 -2.45577 -95.8167 
v -2 -2.45577 -96.0667 
v -5.375 -2.45577 -96.0667 

vn -1 0 0 
vn -1 0 0 
vn -1 0 0 
vn -1 0 0 
vn 0 0 1 
vn 0 0 1 
vn 0 0 1 
vn 0 0 1 
vn 0 1 0 
vn 0 1 0 
vn 0 1 0 
vn 0 1 0 
vn 1 0 0 
vn 1 0 0 
vn 1 0 0 
vn 1 0 0 
vn 0 0 -1 
vn 0 0 -1 
vn 0 0 -1 
vn 0 0 -1 
vn 0 -1 0 
vn 0 -1 0 
vn 0 -1 0 
vn 0 -1 0 

vt 8 -0.25 
vt 7.25 -0.25 
vt 8 -0.28125 
vt 7.25 -0.28125 
vt 7.67188 -0.25 
vt 7.25 -0.25 
vt 7.67188 -1 
vt 7.25 -1 
vt 7.67188 -0.25 
vt 7.25 -0.25 
vt 7.67188 -0.28125 
vt 7.25 -0.28125 
vt 8 -0.25 
vt 7.25 -0.25 
vt 8 -0.28125 
vt 7.25 -0.28125 
vt 7.67188 -0.25 
vt 7.25 -0.25 
vt 7.67188 -1 
vt 7.25 -1 
vt 7.67188 -0.25 
vt 7.25 -0.25 
vt 7.67188 -0.28125 
vt 7.25 -0.28125 

usemtl Base1Mtl

f 291/291/291 292/292/292 293/293/293 
f 293/293/293 292/292/292 294/294/294 
f 295/295/295 296/296/296 297/297/297 
f 297/297/297 296/296/296 298/298/298 
f 299/299/299 300/300/300 301/301/301 
f 301/301/301 300/300/300 302/302/302 
f 303/303/303 304/304/304 305/305/305 
f 305/305/305 304/304/304 306/306/306 
f 307/307/307 308/308/308 309/309/309 
f 309/309/309 308/308/308 310/310/310 
f 311/311/311 312/312/312 313/313/313 
f 313/313/313 312/312/312 314/314/314 

g Lbase1

v -5.125 2.41923 -95.6917 
v -5.125 3.29423 -95.6917 
v -5.125 2.41923 -95.8167 
v -5.125 3.29423 -95.8167 
v -3.75 3.29423 -95.6917 
v -5.125 3.29423 -95.6917 
v -3.75 2.41923 -95.6917 
v -5.125 2.41923 -95.6917 
v -5.125 3.29423 -95.6917 
v -3.75 3.29423 -95.6917 
v -5.125 3.29423 -95.8167 
v -3.75 3.29423 -95.8167 
v -3.75 3.29423 -95.6917 
v -3.75 2.41923 -95.6917 
v -3.75 3.29423 -95.8167 
v -3.75 2.41923 -95.8167 
v -3.75 2.41923 -95.8167 
v -5.125 2.41923 -95.8167 
v -3.75 3.29423 -95.8167 
v -5.125 3.29423 -95.8167 
v -3.75 2.41923 -95.6917 
v -5.125 2.41923 -95.6917 
v -3.75 2.41923 -95.8167 
v -5.125 2.41923 -95.8167 

vn -1 0 0 
vn -1 0 0 
vn -1 0 0 
vn -1 0 0 
vn 0 0 1 
vn 0 0 1 
vn 0 0 1 
vn 0 0 1 
vn 0 1 0 
vn 0 1 0 
vn 0 1 0 
vn 0 1 0 
vn 1 0 0 
vn 1 0 0 
vn 1 0 0 
vn 1 0 0 
vn 0 0 -1 
vn 0 0 -1 
vn 0 0 -1 
vn 0 0 -1 
vn 0 -1 0 
vn 0 -1 0 
vn 0 -1 0 
vn 0 -1 0 

vt 6.10938 -0.5 
vt 6 -0.5 
vt 6.10938 -0.515625 
vt 6 -0.515625 
vt 6.17188 -0.5 
vt 6 -0.5 
vt 6.17188 -0.609375 
vt 6 -0.609375 
vt 6.17188 -0.5 
vt 6 -0.5 
vt 6.17188 -0.515625 
vt 6 -0.515625 
vt 6.10938 -0.5 
vt 6 -0.5 
vt 6.10938 -0.515625 
vt 6 -0.515625 
vt 6.17188 -0.5 
vt 6 -0.5 
vt 6.17188 -0.609375 
vt 6 -0.609375 
vt 6.17188 -0.5 
vt 6 -0.5 
vt 6.17188 -0.515625 
vt 6 -0.515625 

usemtl NmHold1Mtl

f 315/315/315 316/316/316 317/317/317 
f 317/317/317 316/316/316 318/318/318 
f 319/319/319 320/320/320 321/321/321 
f 321/321/321 320/320/320 322/322/322 
f 323/323/323 324/324/324 325/325/325 
f 325/325/325 324/324/324 326/326/326 
f 327/327/327 328/328/328 329/329/329 
f 329/329/329 328/328/328 330/330/330 
f 331/331/331 332/332/332 333/333/333 
f 333/333/333 332/332/332 334/334/334 
f 335/335/335 336/336/336 337/337/337 
f 337/337/337 336/336/336 338/338/338 

g Light1

v -5 2.66923 -95.5667 
v -5 3.04423 -95.5667 
v -5 2.66923 -95.6917 
v -5 3.04423 -95.6917 
v -3.875 3.04423 -95.5667 
v -5 3.04423 -95.5667 
v -3.875 2.66923 -95.5667 
v -5 2.66923 -95.5667 
v -5 3.04423 -95.5667 
v -3.875 3.04423 -95.5667 
v -5 3.04423 -95.6917 
v -3.875 3.04423 -95.6917 
v -3.875 3.04423 -95.5667 
v -3.875 2.66923 -95.5667 
v -3.875 3.04423 -95.6917 
v -3.875 2.66923 -95.6917 
v -3.875 2.66923 -95.6917 
v -5 2.66923 -95.6917 
v -3.875 3.04423 -95.6917 
v -5 3.04423 -95.6917 
v -3.875 2.66923 -95.5667 
v -5 2.66923 -95.5667 
v -3.875 2.66923 -95.6917 
v -5 2.66923 -95.6917 

vn -1 0 0 
vn -1 0 0 
vn -1 0 0 
vn -1 0 0 
vn 0 0 1 
vn 0 0 1 
vn 0 0 1 
vn 0 0 1 
vn 0 1 0 
vn 0 1 0 
vn 0 1 0 
vn 0 1 0 
vn 1 0 0 
vn 1 0 0 
vn 1 0 0 
vn 1 0 0 
vn 0 0 -1 
vn 0 0 -1 
vn 0 0 -1 
vn 0 0 -1 
vn 0 -1 0 
vn 0 -1 0 
vn 0 -1 0 
vn 0 -1 0 

vt 3.79688 -6.5 
vt 3.75 -6.5 
vt 3.79688 -6.51562 
vt 3.75 -6.51562 
vt 3.89062 -6.5 
vt 3.75 -6.5 
vt 3.89062 -6.54688 
vt 3.75 -6.54688 
vt 3.89062 -6.5 
vt 3.75 -6.5 
vt 3.89062 -6.51562 
vt 3.75 -6.51562 
vt 3.79688 -6.5 
vt 3.75 -6.5 
vt 3.79688 -6.51562 
vt 3.75 -6.51562 
vt 3.89062 -6.5 
vt 3.75 -6.5 
vt 3.89062 -6.54688 
vt 3.75 -6.54688 
vt 3.89062 -6.5 
vt 3.75 -6.5 
vt 3.89062 -6.51562 
vt 3.75 -6.51562 

usemtl Light1Mtl

f 339/339/339 340/340/340 341/341/341 
f 341/341/341 340/340/340 342/342/342 
f 343/343/343 344/344/344 345/345/345 
f 345/345/345 344/344/344 346/346/346 
f 347/347/347 348/348/348 349/349/349 
f 349/349/349 348/348/348 350/350/350 
f 351/351/351 352/352/352 353/353/353 
f 353/353/353 352/352/352 354/354/354 
f 355/355/355 356/356/356 357/357/357 
f 357/357/357 356/356/356 358/358/358 
f 359/359/359 360/360/360 361/361/361 
f 361/361/361 360/360/360 362/362/362 

g Joint1

v -5.025 2.64423 -95.6417 
v -5.025 3.06923 -95.6417 
v -5.025 2.64423 -95.6917 
v -5.025 3.06923 -95.6917 
v -3.85 3.06923 -95.6417 
v -5.025 3.06923 -95.6417 
v -3.85 2.64423 -95.6417 
v -5.025 2.64423 -95.6417 
v -5.025 3.06923 -95.6417 
v -3.85 3.06923 -95.6417 
v -5.025 3.06923 -95.6917 
v -3.85 3.06923 -95.6917 
v -3.85 3.06923 -95.6417 
v -3.85 2.64423 -95.6417 
v -3.85 3.06923 -95.6917 
v -3.85 2.64423 -95.6917 
v -3.85 2.64423 -95.6917 
v -5.025 2.64423 -95.6917 
v -3.85 3.06923 -95.6917 
v -5.025 3.06923 -95.6917 
v -3.85 2.64423 -95.6417 
v -5.025 2.64423 -95.6417 
v -3.85 2.64423 -95.6917 
v -5.025 2.64423 -95.6917 

vn -1 0 0 
vn -1 0 0 
vn -1 0 0 
vn -1 0 0 
vn 0 0 1 
vn 0 0 1 
vn 0 0 1 
vn 0 0 1 
vn 0 1 0 
vn 0 1 0 
vn 0 1 0 
vn 0 1 0 
vn 1 0 0 
vn 1 0 0 
vn 1 0 0 
vn 1 0 0 
vn 0 0 -1 
vn 0 0 -1 
vn 0 0 -1 
vn 0 0 -1 
vn 0 -1 0 
vn 0 -1 0 
vn 0 -1 0 
vn 0 -1 0 

vt 7.05312 -4.25 
vt 7 -4.25 
vt 7.05312 -4.25625 
vt 7 -4.25625 
vt 7.14687 -4.25 
vt 7 -4.25 
vt 7.14687 -4.30312 
vt 7 -4.30312 
vt 7.14687 -4.25 
vt 7 -4.25 
vt 7.14687 -4.25625 
vt 7 -4.25625 
vt 7.05312 -4.25 
vt 7 -4.25 
vt 7.05312 -4.25625 
vt 7 -4.25625 
vt 7.14687 -4.25 
vt 7 -4.25 
vt 7.14687 -4.30312 
vt 7 -4.30312 
vt 7.14687 -4.25 
vt 7 -4.25 
vt 7.14687 -4.25625 
vt 7 -4.25625 

usemtl T1Mtl

f 363/363/363 364/364/364 365/365/365 
f 365/365/365 364/364/364 366/366/366 
f 367/367/367 368/368/368 369/369/369 
f 369/369/369 368/368/368 370/370/370 
f 371/371/371 372/372/372 373/373/373 
f 373/373/373 372/372/372 374/374/374 
f 375/375/375 376/376/376 377/377/377 
f 377/377/377 376/376/376 378/378/378 
f 379/379/379 380/380/380 381/381/381 
f 381/381/381 380/380/380 382/382/382 
f 383/383/383 384/384/384 385/385/385 
f 385/385/385 384/384/384 386/386/386 

